<svg xmlns="http://www.w3.org/2000/svg" width="1000" height="500">
<rect width="100%" height="100%" fill="#262d33"/>
<style>text { font-family: monospace; dominant-baseline: text-before-edge; }</style>
<text x="10" y="10" font-size="12" fill="#16c60c">shavi@ShavirPC:</text>
<text x="130" y="10" font-size="12" fill="#3a96dd">~$ cube --daily_scramble --date=2026-04-14</text>
<rect x="410" y="32" width="28" height="28" rx="3" fill="#e0ca02" stroke="#1a2025" stroke-width="1.5"/>
<rect x="440" y="32" width="28" height="28" rx="3" fill="#1ebe15" stroke="#1a2025" stroke-width="1.5"/>
<rect x="470" y="32" width="28" height="28" rx="3" fill="#1ebe15" stroke="#1a2025" stroke-width="1.5"/>
<rect x="410" y="62" width="28" height="28" rx="3" fill="#1ebe15" stroke="#1a2025" stroke-width="1.5"/>
<rect x="440" y="62" width="28" height="28" rx="3" fill="#f0f0f0" stroke="#1a2025" stroke-width="1.5"/>
<rect x="470" y="62" width="28" height="28" rx="3" fill="#e30e0e" stroke="#1a2025" stroke-width="1.5"/>
<rect x="410" y="92" width="28" height="28" rx="3" fill="#e30e0e" stroke="#1a2025" stroke-width="1.5"/>
<rect x="440" y="92" width="28" height="28" rx="3" fill="#166daf" stroke="#1a2025" stroke-width="1.5"/>
<rect x="470" y="92" width="28" height="28" rx="3" fill="#1ebe15" stroke="#1a2025" stroke-width="1.5"/>
<text x="454" y="28" font-size="9" fill="#7a7a7a" text-anchor="middle">U</text>
<rect x="320" y="122" width="28" height="28" rx="3" fill="#166daf" stroke="#1a2025" stroke-width="1.5"/>
<rect x="350" y="122" width="28" height="28" rx="3" fill="#f0f0f0" stroke="#1a2025" stroke-width="1.5"/>
<rect x="380" y="122" width="28" height="28" rx="3" fill="#1ebe15" stroke="#1a2025" stroke-width="1.5"/>
<rect x="320" y="152" width="28" height="28" rx="3" fill="#f0f0f0" stroke="#1a2025" stroke-width="1.5"/>
<rect x="350" y="152" width="28" height="28" rx="3" fill="#e87722" stroke="#1a2025" stroke-width="1.5"/>
<rect x="380" y="152" width="28" height="28" rx="3" fill="#1ebe15" stroke="#1a2025" stroke-width="1.5"/>
<rect x="320" y="182" width="28" height="28" rx="3" fill="#e0ca02" stroke="#1a2025" stroke-width="1.5"/>
<rect x="350" y="182" width="28" height="28" rx="3" fill="#e30e0e" stroke="#1a2025" stroke-width="1.5"/>
<rect x="380" y="182" width="28" height="28" rx="3" fill="#f0f0f0" stroke="#1a2025" stroke-width="1.5"/>
<text x="364" y="118" font-size="9" fill="#7a7a7a" text-anchor="middle">L</text>
<rect x="410" y="122" width="28" height="28" rx="3" fill="#e30e0e" stroke="#1a2025" stroke-width="1.5"/>
<rect x="440" y="122" width="28" height="28" rx="3" fill="#e0ca02" stroke="#1a2025" stroke-width="1.5"/>
<rect x="470" y="122" width="28" height="28" rx="3" fill="#e87722" stroke="#1a2025" stroke-width="1.5"/>
<rect x="410" y="152" width="28" height="28" rx="3" fill="#e87722" stroke="#1a2025" stroke-width="1.5"/>
<rect x="440" y="152" width="28" height="28" rx="3" fill="#1ebe15" stroke="#1a2025" stroke-width="1.5"/>
<rect x="470" y="152" width="28" height="28" rx="3" fill="#e0ca02" stroke="#1a2025" stroke-width="1.5"/>
<rect x="410" y="182" width="28" height="28" rx="3" fill="#1ebe15" stroke="#1a2025" stroke-width="1.5"/>
<rect x="440" y="182" width="28" height="28" rx="3" fill="#1ebe15" stroke="#1a2025" stroke-width="1.5"/>
<rect x="470" y="182" width="28" height="28" rx="3" fill="#e0ca02" stroke="#1a2025" stroke-width="1.5"/>
<text x="454" y="118" font-size="9" fill="#7a7a7a" text-anchor="middle">F</text>
<rect x="500" y="122" width="28" height="28" rx="3" fill="#166daf" stroke="#1a2025" stroke-width="1.5"/>
<rect x="530" y="122" width="28" height="28" rx="3" fill="#e30e0e" stroke="#1a2025" stroke-width="1.5"/>
<rect x="560" y="122" width="28" height="28" rx="3" fill="#f0f0f0" stroke="#1a2025" stroke-width="1.5"/>
<rect x="500" y="152" width="28" height="28" rx="3" fill="#166daf" stroke="#1a2025" stroke-width="1.5"/>
<rect x="530" y="152" width="28" height="28" rx="3" fill="#e30e0e" stroke="#1a2025" stroke-width="1.5"/>
<rect x="560" y="152" width="28" height="28" rx="3" fill="#e87722" stroke="#1a2025" stroke-width="1.5"/>
<rect x="500" y="182" width="28" height="28" rx="3" fill="#e30e0e" stroke="#1a2025" stroke-width="1.5"/>
<rect x="530" y="182" width="28" height="28" rx="3" fill="#e0ca02" stroke="#1a2025" stroke-width="1.5"/>
<rect x="560" y="182" width="28" height="28" rx="3" fill="#e87722" stroke="#1a2025" stroke-width="1.5"/>
<text x="544" y="118" font-size="9" fill="#7a7a7a" text-anchor="middle">R</text>
<rect x="590" y="122" width="28" height="28" rx="3" fill="#e0ca02" stroke="#1a2025" stroke-width="1.5"/>
<rect x="620" y="122" width="28" height="28" rx="3" fill="#e0ca02" stroke="#1a2025" stroke-width="1.5"/>
<rect x="650" y="122" width="28" height="28" rx="3" fill="#f0f0f0" stroke="#1a2025" stroke-width="1.5"/>
<rect x="590" y="152" width="28" height="28" rx="3" fill="#e87722" stroke="#1a2025" stroke-width="1.5"/>
<rect x="620" y="152" width="28" height="28" rx="3" fill="#166daf" stroke="#1a2025" stroke-width="1.5"/>
<rect x="650" y="152" width="28" height="28" rx="3" fill="#e87722" stroke="#1a2025" stroke-width="1.5"/>
<rect x="590" y="182" width="28" height="28" rx="3" fill="#f0f0f0" stroke="#1a2025" stroke-width="1.5"/>
<rect x="620" y="182" width="28" height="28" rx="3" fill="#f0f0f0" stroke="#1a2025" stroke-width="1.5"/>
<rect x="650" y="182" width="28" height="28" rx="3" fill="#e87722" stroke="#1a2025" stroke-width="1.5"/>
<text x="634" y="118" font-size="9" fill="#7a7a7a" text-anchor="middle">B</text>
<rect x="410" y="212" width="28" height="28" rx="3" fill="#e87722" stroke="#1a2025" stroke-width="1.5"/>
<rect x="440" y="212" width="28" height="28" rx="3" fill="#e30e0e" stroke="#1a2025" stroke-width="1.5"/>
<rect x="470" y="212" width="28" height="28" rx="3" fill="#166daf" stroke="#1a2025" stroke-width="1.5"/>
<rect x="410" y="242" width="28" height="28" rx="3" fill="#f0f0f0" stroke="#1a2025" stroke-width="1.5"/>
<rect x="440" y="242" width="28" height="28" rx="3" fill="#e0ca02" stroke="#1a2025" stroke-width="1.5"/>
<rect x="470" y="242" width="28" height="28" rx="3" fill="#166daf" stroke="#1a2025" stroke-width="1.5"/>
<rect x="410" y="272" width="28" height="28" rx="3" fill="#166daf" stroke="#1a2025" stroke-width="1.5"/>
<rect x="440" y="272" width="28" height="28" rx="3" fill="#166daf" stroke="#1a2025" stroke-width="1.5"/>
<rect x="470" y="272" width="28" height="28" rx="3" fill="#e30e0e" stroke="#1a2025" stroke-width="1.5"/>
<text x="454" y="208" font-size="9" fill="#7a7a7a" text-anchor="middle">D</text>
<text x="10" y="312" font-size="11" fill="#7a7a7a">scramble: </text>
<text x="82" y="312" font-size="11" fill="#d4d4d4">U </text>
<text x="94" y="312" font-size="11" fill="#3a96dd">L2 </text>
<text x="114" y="312" font-size="11" fill="#d4d4d4">F </text>
<text x="126" y="312" font-size="11" fill="#e74856">B' </text>
<text x="146" y="312" font-size="11" fill="#3a96dd">U2 </text>
<text x="166" y="312" font-size="11" fill="#e74856">F' </text>
<text x="186" y="312" font-size="11" fill="#e74856">D' </text>
<text x="206" y="312" font-size="11" fill="#d4d4d4">U </text>
<text x="218" y="312" font-size="11" fill="#e74856">F' </text>
<text x="238" y="312" font-size="11" fill="#3a96dd">R2 </text>
<text x="258" y="312" font-size="11" fill="#3a96dd">L2 </text>
<text x="278" y="312" font-size="11" fill="#d4d4d4">F </text>
<text x="290" y="312" font-size="11" fill="#d4d4d4">L </text>
<text x="302" y="312" font-size="11" fill="#d4d4d4">D </text>
<text x="314" y="312" font-size="11" fill="#d4d4d4">F </text>
<text x="326" y="312" font-size="11" fill="#e74856">R' </text>
<text x="346" y="312" font-size="11" fill="#e74856">F' </text>
<text x="366" y="312" font-size="11" fill="#d4d4d4">B </text>
<text x="378" y="312" font-size="11" fill="#d4d4d4">U </text>
<text x="390" y="312" font-size="11" fill="#d4d4d4">F </text>
</svg>