<svg xmlns="http://www.w3.org/2000/svg" width="1000" height="550">
<rect width="100%" height="100%" fill="#262d33"/>
<style>text { font-family: monospace; dominant-baseline: text-before-edge; }</style>
<text x="15" y="15" font-size="14" fill="#16c60c">shavi@ShavirPC:</text>
<text x="165" y="15" font-size="14" fill="#3a96dd">~$ cube --daily_scramble --date=2026-04-14</text>
<rect x="371" y="60" width="42" height="42" rx="4" fill="#e0ca02" stroke="#1a2025" stroke-width="2"/>
<rect x="416" y="60" width="42" height="42" rx="4" fill="#1ebe15" stroke="#1a2025" stroke-width="2"/>
<rect x="461" y="60" width="42" height="42" rx="4" fill="#1ebe15" stroke="#1a2025" stroke-width="2"/>
<rect x="371" y="105" width="42" height="42" rx="4" fill="#1ebe15" stroke="#1a2025" stroke-width="2"/>
<rect x="416" y="105" width="42" height="42" rx="4" fill="#f0f0f0" stroke="#1a2025" stroke-width="2"/>
<rect x="461" y="105" width="42" height="42" rx="4" fill="#e30e0e" stroke="#1a2025" stroke-width="2"/>
<rect x="371" y="150" width="42" height="42" rx="4" fill="#e30e0e" stroke="#1a2025" stroke-width="2"/>
<rect x="416" y="150" width="42" height="42" rx="4" fill="#166daf" stroke="#1a2025" stroke-width="2"/>
<rect x="461" y="150" width="42" height="42" rx="4" fill="#1ebe15" stroke="#1a2025" stroke-width="2"/>
<text x="437" y="52" font-size="13" fill="#9a9a9a" text-anchor="middle" font-weight="bold">U</text>
<rect x="230" y="201" width="42" height="42" rx="4" fill="#166daf" stroke="#1a2025" stroke-width="2"/>
<rect x="275" y="201" width="42" height="42" rx="4" fill="#f0f0f0" stroke="#1a2025" stroke-width="2"/>
<rect x="320" y="201" width="42" height="42" rx="4" fill="#1ebe15" stroke="#1a2025" stroke-width="2"/>
<rect x="230" y="246" width="42" height="42" rx="4" fill="#f0f0f0" stroke="#1a2025" stroke-width="2"/>
<rect x="275" y="246" width="42" height="42" rx="4" fill="#e87722" stroke="#1a2025" stroke-width="2"/>
<rect x="320" y="246" width="42" height="42" rx="4" fill="#1ebe15" stroke="#1a2025" stroke-width="2"/>
<rect x="230" y="291" width="42" height="42" rx="4" fill="#e0ca02" stroke="#1a2025" stroke-width="2"/>
<rect x="275" y="291" width="42" height="42" rx="4" fill="#e30e0e" stroke="#1a2025" stroke-width="2"/>
<rect x="320" y="291" width="42" height="42" rx="4" fill="#f0f0f0" stroke="#1a2025" stroke-width="2"/>
<text x="296" y="193" font-size="13" fill="#9a9a9a" text-anchor="middle" font-weight="bold">L</text>
<rect x="371" y="201" width="42" height="42" rx="4" fill="#e30e0e" stroke="#1a2025" stroke-width="2"/>
<rect x="416" y="201" width="42" height="42" rx="4" fill="#e0ca02" stroke="#1a2025" stroke-width="2"/>
<rect x="461" y="201" width="42" height="42" rx="4" fill="#e87722" stroke="#1a2025" stroke-width="2"/>
<rect x="371" y="246" width="42" height="42" rx="4" fill="#e87722" stroke="#1a2025" stroke-width="2"/>
<rect x="416" y="246" width="42" height="42" rx="4" fill="#1ebe15" stroke="#1a2025" stroke-width="2"/>
<rect x="461" y="246" width="42" height="42" rx="4" fill="#e0ca02" stroke="#1a2025" stroke-width="2"/>
<rect x="371" y="291" width="42" height="42" rx="4" fill="#1ebe15" stroke="#1a2025" stroke-width="2"/>
<rect x="416" y="291" width="42" height="42" rx="4" fill="#1ebe15" stroke="#1a2025" stroke-width="2"/>
<rect x="461" y="291" width="42" height="42" rx="4" fill="#e0ca02" stroke="#1a2025" stroke-width="2"/>
<text x="437" y="193" font-size="13" fill="#9a9a9a" text-anchor="middle" font-weight="bold">F</text>
<rect x="512" y="201" width="42" height="42" rx="4" fill="#166daf" stroke="#1a2025" stroke-width="2"/>
<rect x="557" y="201" width="42" height="42" rx="4" fill="#e30e0e" stroke="#1a2025" stroke-width="2"/>
<rect x="602" y="201" width="42" height="42" rx="4" fill="#f0f0f0" stroke="#1a2025" stroke-width="2"/>
<rect x="512" y="246" width="42" height="42" rx="4" fill="#166daf" stroke="#1a2025" stroke-width="2"/>
<rect x="557" y="246" width="42" height="42" rx="4" fill="#e30e0e" stroke="#1a2025" stroke-width="2"/>
<rect x="602" y="246" width="42" height="42" rx="4" fill="#e87722" stroke="#1a2025" stroke-width="2"/>
<rect x="512" y="291" width="42" height="42" rx="4" fill="#e30e0e" stroke="#1a2025" stroke-width="2"/>
<rect x="557" y="291" width="42" height="42" rx="4" fill="#e0ca02" stroke="#1a2025" stroke-width="2"/>
<rect x="602" y="291" width="42" height="42" rx="4" fill="#e87722" stroke="#1a2025" stroke-width="2"/>
<text x="578" y="193" font-size="13" fill="#9a9a9a" text-anchor="middle" font-weight="bold">R</text>
<rect x="653" y="201" width="42" height="42" rx="4" fill="#e0ca02" stroke="#1a2025" stroke-width="2"/>
<rect x="698" y="201" width="42" height="42" rx="4" fill="#e0ca02" stroke="#1a2025" stroke-width="2"/>
<rect x="743" y="201" width="42" height="42" rx="4" fill="#f0f0f0" stroke="#1a2025" stroke-width="2"/>
<rect x="653" y="246" width="42" height="42" rx="4" fill="#e87722" stroke="#1a2025" stroke-width="2"/>
<rect x="698" y="246" width="42" height="42" rx="4" fill="#166daf" stroke="#1a2025" stroke-width="2"/>
<rect x="743" y="246" width="42" height="42" rx="4" fill="#e87722" stroke="#1a2025" stroke-width="2"/>
<rect x="653" y="291" width="42" height="42" rx="4" fill="#f0f0f0" stroke="#1a2025" stroke-width="2"/>
<rect x="698" y="291" width="42" height="42" rx="4" fill="#f0f0f0" stroke="#1a2025" stroke-width="2"/>
<rect x="743" y="291" width="42" height="42" rx="4" fill="#e87722" stroke="#1a2025" stroke-width="2"/>
<text x="719" y="193" font-size="13" fill="#9a9a9a" text-anchor="middle" font-weight="bold">B</text>
<rect x="371" y="342" width="42" height="42" rx="4" fill="#e87722" stroke="#1a2025" stroke-width="2"/>
<rect x="416" y="342" width="42" height="42" rx="4" fill="#e30e0e" stroke="#1a2025" stroke-width="2"/>
<rect x="461" y="342" width="42" height="42" rx="4" fill="#166daf" stroke="#1a2025" stroke-width="2"/>
<rect x="371" y="387" width="42" height="42" rx="4" fill="#f0f0f0" stroke="#1a2025" stroke-width="2"/>
<rect x="416" y="387" width="42" height="42" rx="4" fill="#e0ca02" stroke="#1a2025" stroke-width="2"/>
<rect x="461" y="387" width="42" height="42" rx="4" fill="#166daf" stroke="#1a2025" stroke-width="2"/>
<rect x="371" y="432" width="42" height="42" rx="4" fill="#166daf" stroke="#1a2025" stroke-width="2"/>
<rect x="416" y="432" width="42" height="42" rx="4" fill="#166daf" stroke="#1a2025" stroke-width="2"/>
<rect x="461" y="432" width="42" height="42" rx="4" fill="#e30e0e" stroke="#1a2025" stroke-width="2"/>
<text x="437" y="334" font-size="13" fill="#9a9a9a" text-anchor="middle" font-weight="bold">D</text>
<text x="15" y="494" font-size="14" fill="#9a9a9a">scramble: </text>
<text x="105" y="494" font-size="14" fill="#d4d4d4">U </text>
<text x="120" y="494" font-size="14" fill="#6ca0c7">L2 </text>
<text x="144" y="494" font-size="14" fill="#d4d4d4">F </text>
<text x="159" y="494" font-size="14" fill="#ba8ad6">B' </text>
<text x="183" y="494" font-size="14" fill="#6ca0c7">U2 </text>
<text x="207" y="494" font-size="14" fill="#ba8ad6">F' </text>
<text x="231" y="494" font-size="14" fill="#ba8ad6">D' </text>
<text x="255" y="494" font-size="14" fill="#d4d4d4">U </text>
<text x="270" y="494" font-size="14" fill="#ba8ad6">F' </text>
<text x="294" y="494" font-size="14" fill="#6ca0c7">R2 </text>
<text x="318" y="494" font-size="14" fill="#6ca0c7">L2 </text>
<text x="342" y="494" font-size="14" fill="#d4d4d4">F </text>
<text x="357" y="494" font-size="14" fill="#d4d4d4">L </text>
<text x="372" y="494" font-size="14" fill="#d4d4d4">D </text>
<text x="387" y="494" font-size="14" fill="#d4d4d4">F </text>
<text x="402" y="494" font-size="14" fill="#ba8ad6">R' </text>
<text x="426" y="494" font-size="14" fill="#ba8ad6">F' </text>
<text x="450" y="494" font-size="14" fill="#d4d4d4">B </text>
<text x="465" y="494" font-size="14" fill="#d4d4d4">U </text>
<text x="480" y="494" font-size="14" fill="#d4d4d4">F </text>
</svg>