<svg xmlns="http://www.w3.org/2000/svg" width="1000" height="550">
<rect width="100%" height="100%" fill="#262d33"/>

        <style>
            text {
                font-family: monospace;
                font-size: 14px;
                dominant-baseline: text-before-edge;
                white-space: pre;
                letter-spacing: 0.2px;
            }
        </style>
        
<text x="15" y="15" fill="#16c60c" font-weight="bold">shavi@ShavirPC:</text>
<text x="165" y="15" fill="#3a96dd">~$ cube --daily --date=2026-04-14</text>
<rect x="371" y="60" width="42" height="42" rx="4" fill="#e0ca02" stroke="#1a2025" stroke-width="2"/>
<rect x="416" y="60" width="42" height="42" rx="4" fill="#1ebe15" stroke="#1a2025" stroke-width="2"/>
<rect x="461" y="60" width="42" height="42" rx="4" fill="#1ebe15" stroke="#1a2025" stroke-width="2"/>
<rect x="371" y="105" width="42" height="42" rx="4" fill="#1ebe15" stroke="#1a2025" stroke-width="2"/>
<rect x="416" y="105" width="42" height="42" rx="4" fill="#f0f0f0" stroke="#1a2025" stroke-width="2"/>
<rect x="461" y="105" width="42" height="42" rx="4" fill="#e30e0e" stroke="#1a2025" stroke-width="2"/>
<rect x="371" y="150" width="42" height="42" rx="4" fill="#e30e0e" stroke="#1a2025" stroke-width="2"/>
<rect x="416" y="150" width="42" height="42" rx="4" fill="#166daf" stroke="#1a2025" stroke-width="2"/>
<rect x="461" y="150" width="42" height="42" rx="4" fill="#1ebe15" stroke="#1a2025" stroke-width="2"/>
<rect x="230" y="201" width="42" height="42" rx="4" fill="#166daf" stroke="#1a2025" stroke-width="2"/>
<rect x="275" y="201" width="42" height="42" rx="4" fill="#f0f0f0" stroke="#1a2025" stroke-width="2"/>
<rect x="320" y="201" width="42" height="42" rx="4" fill="#1ebe15" stroke="#1a2025" stroke-width="2"/>
<rect x="230" y="246" width="42" height="42" rx="4" fill="#f0f0f0" stroke="#1a2025" stroke-width="2"/>
<rect x="275" y="246" width="42" height="42" rx="4" fill="#e87722" stroke="#1a2025" stroke-width="2"/>
<rect x="320" y="246" width="42" height="42" rx="4" fill="#1ebe15" stroke="#1a2025" stroke-width="2"/>
<rect x="230" y="291" width="42" height="42" rx="4" fill="#e0ca02" stroke="#1a2025" stroke-width="2"/>
<rect x="275" y="291" width="42" height="42" rx="4" fill="#e30e0e" stroke="#1a2025" stroke-width="2"/>
<rect x="320" y="291" width="42" height="42" rx="4" fill="#f0f0f0" stroke="#1a2025" stroke-width="2"/>
<rect x="371" y="201" width="42" height="42" rx="4" fill="#e30e0e" stroke="#1a2025" stroke-width="2"/>
<rect x="416" y="201" width="42" height="42" rx="4" fill="#e0ca02" stroke="#1a2025" stroke-width="2"/>
<rect x="461" y="201" width="42" height="42" rx="4" fill="#e87722" stroke="#1a2025" stroke-width="2"/>
<rect x="371" y="246" width="42" height="42" rx="4" fill="#e87722" stroke="#1a2025" stroke-width="2"/>
<rect x="416" y="246" width="42" height="42" rx="4" fill="#1ebe15" stroke="#1a2025" stroke-width="2"/>
<rect x="461" y="246" width="42" height="42" rx="4" fill="#e0ca02" stroke="#1a2025" stroke-width="2"/>
<rect x="371" y="291" width="42" height="42" rx="4" fill="#1ebe15" stroke="#1a2025" stroke-width="2"/>
<rect x="416" y="291" width="42" height="42" rx="4" fill="#1ebe15" stroke="#1a2025" stroke-width="2"/>
<rect x="461" y="291" width="42" height="42" rx="4" fill="#e0ca02" stroke="#1a2025" stroke-width="2"/>
<rect x="512" y="201" width="42" height="42" rx="4" fill="#166daf" stroke="#1a2025" stroke-width="2"/>
<rect x="557" y="201" width="42" height="42" rx="4" fill="#e30e0e" stroke="#1a2025" stroke-width="2"/>
<rect x="602" y="201" width="42" height="42" rx="4" fill="#f0f0f0" stroke="#1a2025" stroke-width="2"/>
<rect x="512" y="246" width="42" height="42" rx="4" fill="#166daf" stroke="#1a2025" stroke-width="2"/>
<rect x="557" y="246" width="42" height="42" rx="4" fill="#e30e0e" stroke="#1a2025" stroke-width="2"/>
<rect x="602" y="246" width="42" height="42" rx="4" fill="#e87722" stroke="#1a2025" stroke-width="2"/>
<rect x="512" y="291" width="42" height="42" rx="4" fill="#e30e0e" stroke="#1a2025" stroke-width="2"/>
<rect x="557" y="291" width="42" height="42" rx="4" fill="#e0ca02" stroke="#1a2025" stroke-width="2"/>
<rect x="602" y="291" width="42" height="42" rx="4" fill="#e87722" stroke="#1a2025" stroke-width="2"/>
<rect x="653" y="201" width="42" height="42" rx="4" fill="#e0ca02" stroke="#1a2025" stroke-width="2"/>
<rect x="698" y="201" width="42" height="42" rx="4" fill="#e0ca02" stroke="#1a2025" stroke-width="2"/>
<rect x="743" y="201" width="42" height="42" rx="4" fill="#f0f0f0" stroke="#1a2025" stroke-width="2"/>
<rect x="653" y="246" width="42" height="42" rx="4" fill="#e87722" stroke="#1a2025" stroke-width="2"/>
<rect x="698" y="246" width="42" height="42" rx="4" fill="#166daf" stroke="#1a2025" stroke-width="2"/>
<rect x="743" y="246" width="42" height="42" rx="4" fill="#e87722" stroke="#1a2025" stroke-width="2"/>
<rect x="653" y="291" width="42" height="42" rx="4" fill="#f0f0f0" stroke="#1a2025" stroke-width="2"/>
<rect x="698" y="291" width="42" height="42" rx="4" fill="#f0f0f0" stroke="#1a2025" stroke-width="2"/>
<rect x="743" y="291" width="42" height="42" rx="4" fill="#e87722" stroke="#1a2025" stroke-width="2"/>
<rect x="371" y="342" width="42" height="42" rx="4" fill="#e87722" stroke="#1a2025" stroke-width="2"/>
<rect x="416" y="342" width="42" height="42" rx="4" fill="#e30e0e" stroke="#1a2025" stroke-width="2"/>
<rect x="461" y="342" width="42" height="42" rx="4" fill="#166daf" stroke="#1a2025" stroke-width="2"/>
<rect x="371" y="387" width="42" height="42" rx="4" fill="#f0f0f0" stroke="#1a2025" stroke-width="2"/>
<rect x="416" y="387" width="42" height="42" rx="4" fill="#e0ca02" stroke="#1a2025" stroke-width="2"/>
<rect x="461" y="387" width="42" height="42" rx="4" fill="#166daf" stroke="#1a2025" stroke-width="2"/>
<rect x="371" y="432" width="42" height="42" rx="4" fill="#166daf" stroke="#1a2025" stroke-width="2"/>
<rect x="416" y="432" width="42" height="42" rx="4" fill="#166daf" stroke="#1a2025" stroke-width="2"/>
<rect x="461" y="432" width="42" height="42" rx="4" fill="#e30e0e" stroke="#1a2025" stroke-width="2"/>
<text x="15" y="494"><tspan fill="#6ca0c7">cube.session      </tspan><tspan fill="#d4d4d4">: daily #739720</tspan></text>
<text x="15" y="518"><tspan fill="#6ca0c7">cube.metric       </tspan><tspan fill="#d4d4d4">: HTM 20</tspan></text>
<text x="15" y="542"><tspan fill="#6ca0c7">cube.state        </tspan><tspan fill="#d4d4d4">: scrambled</tspan></text>
<text x="15" y="566"><tspan fill="#6ca0c7">cube.generated    </tspan><tspan fill="#d4d4d4">: 2026-04-14</tspan></text>
<text x="15" y="610" fill="#6ca0c7">scramble:</text>
<text x="120" y="640" fill="#d4d4d4">U</text>
<text x="158" y="640" fill="#e0af68">L2</text>
<text x="196" y="640" fill="#d4d4d4">F</text>
<text x="234" y="640" fill="#bb9af7">B'</text>
<text x="272" y="640" fill="#e0af68">U2</text>
<text x="310" y="640" fill="#bb9af7">F'</text>
<text x="348" y="640" fill="#bb9af7">D'</text>
<text x="386" y="640" fill="#d4d4d4">U</text>
<text x="120" y="664" fill="#bb9af7">F'</text>
<text x="158" y="664" fill="#e0af68">R2</text>
<text x="196" y="664" fill="#e0af68">L2</text>
<text x="234" y="664" fill="#d4d4d4">F</text>
<text x="272" y="664" fill="#d4d4d4">L</text>
<text x="310" y="664" fill="#d4d4d4">D</text>
<text x="348" y="664" fill="#d4d4d4">F</text>
<text x="386" y="664" fill="#bb9af7">R'</text>
<text x="120" y="688" fill="#bb9af7">F'</text>
<text x="158" y="688" fill="#d4d4d4">B</text>
<text x="196" y="688" fill="#d4d4d4">U</text>
<text x="234" y="688" fill="#d4d4d4">F</text>
<text x="15" y="522" fill="#16c60c" font-weight="bold">shavi@ShavirPC:~$</text>
</svg>