<svg xmlns="http://www.w3.org/2000/svg" width="800" height="452">
<rect width="100%" height="100%" fill="#0c0c0c"/>

        <style>
          text {
            font-family: monospace;
            font-size: 14px;
            dominant-baseline: text-before-edge;
            white-space: pre;
            letter-spacing: 0.4px;
          }
        </style>
        
<text x="16" y="16" fill="#16c60c">shavi@ShavirPC:</text>
<text x="420" y="16" fill="#bb9af7">ShavirV@github</text>
<text x="16" y="36" fill="#3a96dd">/mnt/c/Users/shavi$ neofetch</text>
<text x="420" y="36" fill="#565f89">-----------------------</text>
<text x="16" y="56" fill="#7a7a7a"></text>
<text x="420" y="56" fill="#9ece6a">Name:</text>
<text x="16" y="76" fill="#e74856">    :-::::.........................</text>
<text x="420" y="76" fill="#d4d4d4">Shavir Vallabh</text>
<text x="16" y="96" fill="#e74856">  :--:::.............................</text>
<text x="420" y="96" fill="#9ece6a">Host:</text>
<text x="16" y="116" fill="#e74856"> :-::::................................</text>
<text x="420" y="116" fill="#d4d4d4">University of Pretoria</text>
<text x="16" y="136" fill="#e74856"> -::::.............................+-..</text>
<text x="420" y="136" fill="#9ece6a">Uptime:</text>
<text x="16" y="156" fill="#e74856">.::::.............................==+=..</text>
<text x="420" y="156" fill="#d4d4d4">20 years, 10 months, 21 days</text>
<text x="16" y="176" fill="#e74856">.:::...............................*#+..</text>
<text x="420" y="176" fill="#9ece6a">Repos:</text>
<text x="16" y="196" fill="#e74856">.:::.........++*+:.......................</text>
<text x="420" y="196" fill="#d4d4d4">3</text>
<text x="16" y="216" fill="#e74856">.::.........=*+.*+.......................</text>
<text x="420" y="216" fill="#9ece6a">Followers:</text>
<text x="16" y="236" fill="#e74856">.::..........=**+........................</text>
<text x="420" y="236" fill="#d4d4d4">4</text>
<text x="16" y="256" fill="#e74856">.::........................:----::::.....</text>
<text x="420" y="256" fill="#9ece6a">Following:</text>
<text x="16" y="276" fill="#e74856">.::.....................:============:..</text>
<text x="420" y="276" fill="#d4d4d4">7</text>
<text x="16" y="296" fill="#e74856"> ::.................:-================..</text>
<text x="16" y="316" fill="#e74856"> .::...............-=============--=-..</text>
<text x="16" y="336" fill="#e74856">   .:..............:========------:...</text>
<text x="16" y="356" fill="#e74856">     ................:--------::........</text>
<text x="16" y="376" fill="#e74856">       ................................</text>
<text x="16" y="396" fill="#7a7a7a"></text>
<text x="16" y="416" fill="#7a7a7a">shavi@ShavirPC:/mnt/c/Users/shavi$ sudo rm -rf / --no-preserve-root</text>
</svg>